<svg width="204" height="204" viewBox="0 0 204 204" fill="none" xmlns="http://www.w3.org/2000/svg">
<path d="M4.96023 30.2045C4.32955 30.2045 3.78835 29.9787 3.33665 29.527C2.88494 29.0753 2.65909 28.5341 2.65909 27.9034C2.65909 27.2727 2.88494 26.7315 3.33665 26.2798C3.78835 25.8281 4.32955 25.6023 4.96023 25.6023C5.59091 25.6023 6.1321 25.8281 6.58381 26.2798C7.03551 26.7315 7.26136 27.2727 7.26136 27.9034C7.26136 28.321 7.15483 28.7045 6.94176 29.054C6.73722 29.4034 6.46023 29.6847 6.1108 29.8977C5.76989 30.1023 5.38636 30.2045 4.96023 30.2045Z" fill="#D897FF"/>
<path d="M4.96023 64.2045C4.32955 64.2045 3.78835 63.9787 3.33665 63.527C2.88494 63.0753 2.65909 62.5341 2.65909 61.9034C2.65909 61.2727 2.88494 60.7315 3.33665 60.2798C3.78835 59.8281 4.32955 59.6023 4.96023 59.6023C5.59091 59.6023 6.1321 59.8281 6.58381 60.2798C7.03551 60.7315 7.26136 61.2727 7.26136 61.9034C7.26136 62.321 7.15483 62.7045 6.94176 63.054C6.73722 63.4034 6.46023 63.6847 6.1108 63.8977C5.76989 64.1023 5.38636 64.2045 4.96023 64.2045Z" fill="#D897FF"/>
<path d="M4.96023 98.2045C4.32955 98.2045 3.78835 97.9787 3.33665 97.527C2.88494 97.0753 2.65909 96.5341 2.65909 95.9034C2.65909 95.2727 2.88494 94.7315 3.33665 94.2798C3.78835 93.8281 4.32955 93.6023 4.96023 93.6023C5.59091 93.6023 6.1321 93.8281 6.58381 94.2798C7.03551 94.7315 7.26136 95.2727 7.26136 95.9034C7.26136 96.321 7.15483 96.7045 6.94176 97.054C6.73722 97.4034 6.46023 97.6847 6.1108 97.8977C5.76989 98.1023 5.38636 98.2045 4.96023 98.2045Z" fill="#D897FF"/>
<path d="M4.96023 132.205C4.32955 132.205 3.78835 131.979 3.33665 131.527C2.88494 131.075 2.65909 130.534 2.65909 129.903C2.65909 129.273 2.88494 128.732 3.33665 128.28C3.78835 127.828 4.32955 127.602 4.96023 127.602C5.59091 127.602 6.1321 127.828 6.58381 128.28C7.03551 128.732 7.26136 129.273 7.26136 129.903C7.26136 130.321 7.15483 130.705 6.94176 131.054C6.73722 131.403 6.46023 131.685 6.1108 131.898C5.76989 132.102 5.38636 132.205 4.96023 132.205Z" fill="#D897FF"/>
<path d="M4.96023 166.205C4.32955 166.205 3.78835 165.979 3.33665 165.527C2.88494 165.075 2.65909 164.534 2.65909 163.903C2.65909 163.273 2.88494 162.732 3.33665 162.28C3.78835 161.828 4.32955 161.602 4.96023 161.602C5.59091 161.602 6.1321 161.828 6.58381 162.28C7.03551 162.732 7.26136 163.273 7.26136 163.903C7.26136 164.321 7.15483 164.705 6.94176 165.054C6.73722 165.403 6.46023 165.685 6.1108 165.898C5.76989 166.102 5.38636 166.205 4.96023 166.205Z" fill="#D897FF"/>
<path d="M4.96023 200.205C4.32955 200.205 3.78835 199.979 3.33665 199.527C2.88494 199.075 2.65909 198.534 2.65909 197.903C2.65909 197.273 2.88494 196.732 3.33665 196.28C3.78835 195.828 4.32955 195.602 4.96023 195.602C5.59091 195.602 6.1321 195.828 6.58381 196.28C7.03551 196.732 7.26136 197.273 7.26136 197.903C7.26136 198.321 7.15483 198.705 6.94176 199.054C6.73722 199.403 6.46023 199.685 6.1108 199.898C5.76989 200.102 5.38636 200.205 4.96023 200.205Z" fill="#D897FF"/>
<path d="M38.9602 30.2045C38.3295 30.2045 37.7884 29.9787 37.3366 29.527C36.8849 29.0753 36.6591 28.5341 36.6591 27.9034C36.6591 27.2727 36.8849 26.7315 37.3366 26.2798C37.7884 25.8281 38.3295 25.6023 38.9602 25.6023C39.5909 25.6023 40.1321 25.8281 40.5838 26.2798C41.0355 26.7315 41.2614 27.2727 41.2614 27.9034C41.2614 28.321 41.1548 28.7045 40.9418 29.054C40.7372 29.4034 40.4602 29.6847 40.1108 29.8977C39.7699 30.1023 39.3864 30.2045 38.9602 30.2045Z" fill="#D897FF"/>
<path d="M38.9602 64.2045C38.3295 64.2045 37.7884 63.9787 37.3366 63.527C36.8849 63.0753 36.6591 62.5341 36.6591 61.9034C36.6591 61.2727 36.8849 60.7315 37.3366 60.2798C37.7884 59.8281 38.3295 59.6023 38.9602 59.6023C39.5909 59.6023 40.1321 59.8281 40.5838 60.2798C41.0355 60.7315 41.2614 61.2727 41.2614 61.9034C41.2614 62.321 41.1548 62.7045 40.9418 63.054C40.7372 63.4034 40.4602 63.6847 40.1108 63.8977C39.7699 64.1023 39.3864 64.2045 38.9602 64.2045Z" fill="#D897FF"/>
<path d="M38.9602 98.2045C38.3295 98.2045 37.7884 97.9787 37.3366 97.527C36.8849 97.0753 36.6591 96.5341 36.6591 95.9034C36.6591 95.2727 36.8849 94.7315 37.3366 94.2798C37.7884 93.8281 38.3295 93.6023 38.9602 93.6023C39.5909 93.6023 40.1321 93.8281 40.5838 94.2798C41.0355 94.7315 41.2614 95.2727 41.2614 95.9034C41.2614 96.321 41.1548 96.7045 40.9418 97.054C40.7372 97.4034 40.4602 97.6847 40.1108 97.8977C39.7699 98.1023 39.3864 98.2045 38.9602 98.2045Z" fill="#D897FF"/>
<path d="M38.9602 132.205C38.3295 132.205 37.7884 131.979 37.3366 131.527C36.8849 131.075 36.6591 130.534 36.6591 129.903C36.6591 129.273 36.8849 128.732 37.3366 128.28C37.7884 127.828 38.3295 127.602 38.9602 127.602C39.5909 127.602 40.1321 127.828 40.5838 128.28C41.0355 128.732 41.2614 129.273 41.2614 129.903C41.2614 130.321 41.1548 130.705 40.9418 131.054C40.7372 131.403 40.4602 131.685 40.1108 131.898C39.7699 132.102 39.3864 132.205 38.9602 132.205Z" fill="#D897FF"/>
<path d="M38.9602 166.205C38.3295 166.205 37.7884 165.979 37.3366 165.527C36.8849 165.075 36.6591 164.534 36.6591 163.903C36.6591 163.273 36.8849 162.732 37.3366 162.28C37.7884 161.828 38.3295 161.602 38.9602 161.602C39.5909 161.602 40.1321 161.828 40.5838 162.28C41.0355 162.732 41.2614 163.273 41.2614 163.903C41.2614 164.321 41.1548 164.705 40.9418 165.054C40.7372 165.403 40.4602 165.685 40.1108 165.898C39.7699 166.102 39.3864 166.205 38.9602 166.205Z" fill="#D897FF"/>
<path d="M38.9602 200.205C38.3295 200.205 37.7884 199.979 37.3366 199.527C36.8849 199.075 36.6591 198.534 36.6591 197.903C36.6591 197.273 36.8849 196.732 37.3366 196.28C37.7884 195.828 38.3295 195.602 38.9602 195.602C39.5909 195.602 40.1321 195.828 40.5838 196.28C41.0355 196.732 41.2614 197.273 41.2614 197.903C41.2614 198.321 41.1548 198.705 40.9418 199.054C40.7372 199.403 40.4602 199.685 40.1108 199.898C39.7699 200.102 39.3864 200.205 38.9602 200.205Z" fill="#D897FF"/>
<path d="M72.9602 30.2045C72.3295 30.2045 71.7884 29.9787 71.3366 29.527C70.8849 29.0753 70.6591 28.5341 70.6591 27.9034C70.6591 27.2727 70.8849 26.7315 71.3366 26.2798C71.7884 25.8281 72.3295 25.6023 72.9602 25.6023C73.5909 25.6023 74.1321 25.8281 74.5838 26.2798C75.0355 26.7315 75.2614 27.2727 75.2614 27.9034C75.2614 28.321 75.1548 28.7045 74.9418 29.054C74.7372 29.4034 74.4602 29.6847 74.1108 29.8977C73.7699 30.1023 73.3864 30.2045 72.9602 30.2045Z" fill="#D897FF"/>
<path d="M72.9602 64.2045C72.3295 64.2045 71.7884 63.9787 71.3366 63.527C70.8849 63.0753 70.6591 62.5341 70.6591 61.9034C70.6591 61.2727 70.8849 60.7315 71.3366 60.2798C71.7884 59.8281 72.3295 59.6023 72.9602 59.6023C73.5909 59.6023 74.1321 59.8281 74.5838 60.2798C75.0355 60.7315 75.2614 61.2727 75.2614 61.9034C75.2614 62.321 75.1548 62.7045 74.9418 63.054C74.7372 63.4034 74.4602 63.6847 74.1108 63.8977C73.7699 64.1023 73.3864 64.2045 72.9602 64.2045Z" fill="#D897FF"/>
<path d="M72.9602 98.2045C72.3295 98.2045 71.7884 97.9787 71.3366 97.527C70.8849 97.0753 70.6591 96.5341 70.6591 95.9034C70.6591 95.2727 70.8849 94.7315 71.3366 94.2798C71.7884 93.8281 72.3295 93.6023 72.9602 93.6023C73.5909 93.6023 74.1321 93.8281 74.5838 94.2798C75.0355 94.7315 75.2614 95.2727 75.2614 95.9034C75.2614 96.321 75.1548 96.7045 74.9418 97.054C74.7372 97.4034 74.4602 97.6847 74.1108 97.8977C73.7699 98.1023 73.3864 98.2045 72.9602 98.2045Z" fill="#D897FF"/>
<path d="M72.9602 132.205C72.3295 132.205 71.7884 131.979 71.3366 131.527C70.8849 131.075 70.6591 130.534 70.6591 129.903C70.6591 129.273 70.8849 128.732 71.3366 128.28C71.7884 127.828 72.3295 127.602 72.9602 127.602C73.5909 127.602 74.1321 127.828 74.5838 128.28C75.0355 128.732 75.2614 129.273 75.2614 129.903C75.2614 130.321 75.1548 130.705 74.9418 131.054C74.7372 131.403 74.4602 131.685 74.1108 131.898C73.7699 132.102 73.3864 132.205 72.9602 132.205Z" fill="#D897FF"/>
<path d="M72.9602 166.205C72.3295 166.205 71.7884 165.979 71.3366 165.527C70.8849 165.075 70.6591 164.534 70.6591 163.903C70.6591 163.273 70.8849 162.732 71.3366 162.28C71.7884 161.828 72.3295 161.602 72.9602 161.602C73.5909 161.602 74.1321 161.828 74.5838 162.28C75.0355 162.732 75.2614 163.273 75.2614 163.903C75.2614 164.321 75.1548 164.705 74.9418 165.054C74.7372 165.403 74.4602 165.685 74.1108 165.898C73.7699 166.102 73.3864 166.205 72.9602 166.205Z" fill="#D897FF"/>
<path d="M72.9602 200.205C72.3295 200.205 71.7884 199.979 71.3366 199.527C70.8849 199.075 70.6591 198.534 70.6591 197.903C70.6591 197.273 70.8849 196.732 71.3366 196.28C71.7884 195.828 72.3295 195.602 72.9602 195.602C73.5909 195.602 74.1321 195.828 74.5838 196.28C75.0355 196.732 75.2614 197.273 75.2614 197.903C75.2614 198.321 75.1548 198.705 74.9418 199.054C74.7372 199.403 74.4602 199.685 74.1108 199.898C73.7699 200.102 73.3864 200.205 72.9602 200.205Z" fill="#D897FF"/>
<path d="M106.96 30.2045C106.33 30.2045 105.788 29.9787 105.337 29.527C104.885 29.0753 104.659 28.5341 104.659 27.9034C104.659 27.2727 104.885 26.7315 105.337 26.2798C105.788 25.8281 106.33 25.6023 106.96 25.6023C107.591 25.6023 108.132 25.8281 108.584 26.2798C109.036 26.7315 109.261 27.2727 109.261 27.9034C109.261 28.321 109.155 28.7045 108.942 29.054C108.737 29.4034 108.46 29.6847 108.111 29.8977C107.77 30.1023 107.386 30.2045 106.96 30.2045Z" fill="#D897FF"/>
<path d="M106.96 64.2045C106.33 64.2045 105.788 63.9787 105.337 63.527C104.885 63.0753 104.659 62.5341 104.659 61.9034C104.659 61.2727 104.885 60.7315 105.337 60.2798C105.788 59.8281 106.33 59.6023 106.96 59.6023C107.591 59.6023 108.132 59.8281 108.584 60.2798C109.036 60.7315 109.261 61.2727 109.261 61.9034C109.261 62.321 109.155 62.7045 108.942 63.054C108.737 63.4034 108.46 63.6847 108.111 63.8977C107.77 64.1023 107.386 64.2045 106.96 64.2045Z" fill="#D897FF"/>
<path d="M106.96 98.2045C106.33 98.2045 105.788 97.9787 105.337 97.527C104.885 97.0753 104.659 96.5341 104.659 95.9034C104.659 95.2727 104.885 94.7315 105.337 94.2798C105.788 93.8281 106.33 93.6023 106.96 93.6023C107.591 93.6023 108.132 93.8281 108.584 94.2798C109.036 94.7315 109.261 95.2727 109.261 95.9034C109.261 96.321 109.155 96.7045 108.942 97.054C108.737 97.4034 108.46 97.6847 108.111 97.8977C107.77 98.1023 107.386 98.2045 106.96 98.2045Z" fill="#D897FF"/>
<path d="M106.96 132.205C106.33 132.205 105.788 131.979 105.337 131.527C104.885 131.075 104.659 130.534 104.659 129.903C104.659 129.273 104.885 128.732 105.337 128.28C105.788 127.828 106.33 127.602 106.96 127.602C107.591 127.602 108.132 127.828 108.584 128.28C109.036 128.732 109.261 129.273 109.261 129.903C109.261 130.321 109.155 130.705 108.942 131.054C108.737 131.403 108.46 131.685 108.111 131.898C107.77 132.102 107.386 132.205 106.96 132.205Z" fill="#D897FF"/>
<path d="M106.96 166.205C106.33 166.205 105.788 165.979 105.337 165.527C104.885 165.075 104.659 164.534 104.659 163.903C104.659 163.273 104.885 162.732 105.337 162.28C105.788 161.828 106.33 161.602 106.96 161.602C107.591 161.602 108.132 161.828 108.584 162.28C109.036 162.732 109.261 163.273 109.261 163.903C109.261 164.321 109.155 164.705 108.942 165.054C108.737 165.403 108.46 165.685 108.111 165.898C107.77 166.102 107.386 166.205 106.96 166.205Z" fill="#D897FF"/>
<path d="M106.96 200.205C106.33 200.205 105.788 199.979 105.337 199.527C104.885 199.075 104.659 198.534 104.659 197.903C104.659 197.273 104.885 196.732 105.337 196.28C105.788 195.828 106.33 195.602 106.96 195.602C107.591 195.602 108.132 195.828 108.584 196.28C109.036 196.732 109.261 197.273 109.261 197.903C109.261 198.321 109.155 198.705 108.942 199.054C108.737 199.403 108.46 199.685 108.111 199.898C107.77 200.102 107.386 200.205 106.96 200.205Z" fill="#D897FF"/>
<path d="M140.96 30.2045C140.33 30.2045 139.788 29.9787 139.337 29.527C138.885 29.0753 138.659 28.5341 138.659 27.9034C138.659 27.2727 138.885 26.7315 139.337 26.2798C139.788 25.8281 140.33 25.6023 140.96 25.6023C141.591 25.6023 142.132 25.8281 142.584 26.2798C143.036 26.7315 143.261 27.2727 143.261 27.9034C143.261 28.321 143.155 28.7045 142.942 29.054C142.737 29.4034 142.46 29.6847 142.111 29.8977C141.77 30.1023 141.386 30.2045 140.96 30.2045Z" fill="#D897FF"/>
<path d="M140.96 64.2045C140.33 64.2045 139.788 63.9787 139.337 63.527C138.885 63.0753 138.659 62.5341 138.659 61.9034C138.659 61.2727 138.885 60.7315 139.337 60.2798C139.788 59.8281 140.33 59.6023 140.96 59.6023C141.591 59.6023 142.132 59.8281 142.584 60.2798C143.036 60.7315 143.261 61.2727 143.261 61.9034C143.261 62.321 143.155 62.7045 142.942 63.054C142.737 63.4034 142.46 63.6847 142.111 63.8977C141.77 64.1023 141.386 64.2045 140.96 64.2045Z" fill="#D897FF"/>
<path d="M140.96 98.2045C140.33 98.2045 139.788 97.9787 139.337 97.527C138.885 97.0753 138.659 96.5341 138.659 95.9034C138.659 95.2727 138.885 94.7315 139.337 94.2798C139.788 93.8281 140.33 93.6023 140.96 93.6023C141.591 93.6023 142.132 93.8281 142.584 94.2798C143.036 94.7315 143.261 95.2727 143.261 95.9034C143.261 96.321 143.155 96.7045 142.942 97.054C142.737 97.4034 142.46 97.6847 142.111 97.8977C141.77 98.1023 141.386 98.2045 140.96 98.2045Z" fill="#D897FF"/>
<path d="M140.96 132.205C140.33 132.205 139.788 131.979 139.337 131.527C138.885 131.075 138.659 130.534 138.659 129.903C138.659 129.273 138.885 128.732 139.337 128.28C139.788 127.828 140.33 127.602 140.96 127.602C141.591 127.602 142.132 127.828 142.584 128.28C143.036 128.732 143.261 129.273 143.261 129.903C143.261 130.321 143.155 130.705 142.942 131.054C142.737 131.403 142.46 131.685 142.111 131.898C141.77 132.102 141.386 132.205 140.96 132.205Z" fill="#D897FF"/>
<path d="M140.96 166.205C140.33 166.205 139.788 165.979 139.337 165.527C138.885 165.075 138.659 164.534 138.659 163.903C138.659 163.273 138.885 162.732 139.337 162.28C139.788 161.828 140.33 161.602 140.96 161.602C141.591 161.602 142.132 161.828 142.584 162.28C143.036 162.732 143.261 163.273 143.261 163.903C143.261 164.321 143.155 164.705 142.942 165.054C142.737 165.403 142.46 165.685 142.111 165.898C141.77 166.102 141.386 166.205 140.96 166.205Z" fill="#D897FF"/>
<path d="M140.96 200.205C140.33 200.205 139.788 199.979 139.337 199.527C138.885 199.075 138.659 198.534 138.659 197.903C138.659 197.273 138.885 196.732 139.337 196.28C139.788 195.828 140.33 195.602 140.96 195.602C141.591 195.602 142.132 195.828 142.584 196.28C143.036 196.732 143.261 197.273 143.261 197.903C143.261 198.321 143.155 198.705 142.942 199.054C142.737 199.403 142.46 199.685 142.111 199.898C141.77 200.102 141.386 200.205 140.96 200.205Z" fill="#D897FF"/>
<path d="M174.96 30.2045C174.33 30.2045 173.788 29.9787 173.337 29.527C172.885 29.0753 172.659 28.5341 172.659 27.9034C172.659 27.2727 172.885 26.7315 173.337 26.2798C173.788 25.8281 174.33 25.6023 174.96 25.6023C175.591 25.6023 176.132 25.8281 176.584 26.2798C177.036 26.7315 177.261 27.2727 177.261 27.9034C177.261 28.321 177.155 28.7045 176.942 29.054C176.737 29.4034 176.46 29.6847 176.111 29.8977C175.77 30.1023 175.386 30.2045 174.96 30.2045Z" fill="#D897FF"/>
<path d="M174.96 64.2045C174.33 64.2045 173.788 63.9787 173.337 63.527C172.885 63.0753 172.659 62.5341 172.659 61.9034C172.659 61.2727 172.885 60.7315 173.337 60.2798C173.788 59.8281 174.33 59.6023 174.96 59.6023C175.591 59.6023 176.132 59.8281 176.584 60.2798C177.036 60.7315 177.261 61.2727 177.261 61.9034C177.261 62.321 177.155 62.7045 176.942 63.054C176.737 63.4034 176.46 63.6847 176.111 63.8977C175.77 64.1023 175.386 64.2045 174.96 64.2045Z" fill="#D897FF"/>
<path d="M174.96 98.2045C174.33 98.2045 173.788 97.9787 173.337 97.527C172.885 97.0753 172.659 96.5341 172.659 95.9034C172.659 95.2727 172.885 94.7315 173.337 94.2798C173.788 93.8281 174.33 93.6023 174.96 93.6023C175.591 93.6023 176.132 93.8281 176.584 94.2798C177.036 94.7315 177.261 95.2727 177.261 95.9034C177.261 96.321 177.155 96.7045 176.942 97.054C176.737 97.4034 176.46 97.6847 176.111 97.8977C175.77 98.1023 175.386 98.2045 174.96 98.2045Z" fill="#D897FF"/>
<path d="M174.96 132.205C174.33 132.205 173.788 131.979 173.337 131.527C172.885 131.075 172.659 130.534 172.659 129.903C172.659 129.273 172.885 128.732 173.337 128.28C173.788 127.828 174.33 127.602 174.96 127.602C175.591 127.602 176.132 127.828 176.584 128.28C177.036 128.732 177.261 129.273 177.261 129.903C177.261 130.321 177.155 130.705 176.942 131.054C176.737 131.403 176.46 131.685 176.111 131.898C175.77 132.102 175.386 132.205 174.96 132.205Z" fill="#D897FF"/>
<path d="M174.96 166.205C174.33 166.205 173.788 165.979 173.337 165.527C172.885 165.075 172.659 164.534 172.659 163.903C172.659 163.273 172.885 162.732 173.337 162.28C173.788 161.828 174.33 161.602 174.96 161.602C175.591 161.602 176.132 161.828 176.584 162.28C177.036 162.732 177.261 163.273 177.261 163.903C177.261 164.321 177.155 164.705 176.942 165.054C176.737 165.403 176.46 165.685 176.111 165.898C175.77 166.102 175.386 166.205 174.96 166.205Z" fill="#D897FF"/>
<path d="M174.96 200.205C174.33 200.205 173.788 199.979 173.337 199.527C172.885 199.075 172.659 198.534 172.659 197.903C172.659 197.273 172.885 196.732 173.337 196.28C173.788 195.828 174.33 195.602 174.96 195.602C175.591 195.602 176.132 195.828 176.584 196.28C177.036 196.732 177.261 197.273 177.261 197.903C177.261 198.321 177.155 198.705 176.942 199.054C176.737 199.403 176.46 199.685 176.111 199.898C175.77 200.102 175.386 200.205 174.96 200.205Z" fill="#D897FF"/>
</svg>
